<svg xmlns="http://www.w3.org/2000/svg" width="89.833" height="87.763" viewBox="0 0 89.833 87.763">
  <g id="多角形_5" data-name="多角形 5" transform="translate(0 7.243) rotate(-5)" fill="#fae053" opacity="0.996">
    <path d="M 61.72212982177734 76.64550018310547 C 61.12628173828125 76.64553833007812 60.54914093017578 76.49071502685547 60.00675964355469 76.18534088134766 L 43.76000213623047 67.03800964355469 C 43.08748245239258 66.65935516357422 42.32405090332031 66.45922088623047 41.55226135253906 66.45922088623047 C 40.78047180175781 66.45922088623047 40.01704025268555 66.65935516357422 39.34452056884766 67.03800964355469 L 23.09777069091797 76.18534088134766 C 22.55544090270996 76.49067687988281 21.97830200195312 76.64550018310547 21.38236045837402 76.64550018310547 C 20.35470199584961 76.64550018310547 19.34084129333496 76.16329956054688 18.67029190063477 75.35560607910156 C 18.00412178039551 74.55319976806641 17.74490165710449 73.53608703613281 17.94037055969238 72.49164581298828 L 21.47601127624512 53.60014724731445 C 21.75626182556152 52.10275650024414 21.2672004699707 50.57922744750977 20.16778182983398 49.52470779418945 L 6.380541324615479 36.30055618286133 C 5.383861541748047 35.34458541870117 5.046891212463379 33.99078750610352 5.479161262512207 32.67914581298828 C 5.911421298980713 31.36750793457031 6.987261295318604 30.47930717468262 8.357021331787109 30.3032169342041 L 26.95119094848633 27.9128475189209 C 28.5003604888916 27.71368789672852 29.81450080871582 26.7474479675293 30.4665412902832 25.32814788818359 L 38.37182998657227 8.120596885681152 C 38.94959259033203 6.862967014312744 40.16826248168945 6.081717014312744 41.55226135253906 6.081717014312744 C 42.93625259399414 6.081717014312744 44.15492248535156 6.862967014312744 44.73268127441406 8.120596885681152 L 52.63798141479492 25.32814788818359 C 53.29001235961914 26.7474479675293 54.60416030883789 27.71367645263672 56.1533317565918 27.91283798217773 L 74.74749755859375 30.30320739746094 C 76.11726379394531 30.47929763793945 77.19309997558594 31.36748695373535 77.62535858154297 32.67912673950195 C 78.05763244628906 33.99077606201172 77.72067260742188 35.34457778930664 76.72398376464844 36.30056762695312 L 62.93674087524414 49.52469635009766 C 61.83732986450195 50.57921600341797 61.34827041625977 52.10274887084961 61.62850952148438 53.60014724731445 L 65.16415405273438 72.49164581298828 C 65.35958862304688 73.53591918945312 65.10037231445312 74.55292510986328 64.43424224853516 75.3553466796875 C 63.76365280151367 76.16313934326172 62.74978256225586 76.64543914794922 61.72212982177734 76.64550018310547 Z" stroke="none"/>
    <path d="M 41.55226135253906 6.581718444824219 C 40.34800720214844 6.581718444824219 39.32890701293945 7.235023498535156 38.8261833190918 8.329338073730469 L 30.92089462280273 25.53686904907227 C 30.19640731811523 27.1138801574707 28.73624038696289 28.18748092651367 27.01493835449219 28.40876007080078 L 8.420768737792969 30.79912567138672 C 7.246696472167969 30.95005798339844 6.324546813964844 31.71138000488281 5.954025268554688 32.83563613891602 C 5.583518981933594 33.95990371704102 5.872352600097656 35.12030410766602 6.726638793945312 35.93971633911133 L 20.51389312744141 49.16386032104492 C 21.7354621887207 50.33554840087891 22.27886199951172 52.02835845947266 21.96747207641602 53.69212341308594 L 18.43183135986328 72.5836181640625 C 18.26420593261719 73.47926330566406 18.48551940917969 74.35028076171875 19.05499267578125 75.03621673583984 C 19.63164901733398 75.73081207275391 20.50169372558594 76.14549255371094 21.38236236572266 76.14549255371094 C 21.89132690429688 76.14549255371094 22.38594055175781 76.01231384277344 22.85246276855469 75.74964904785156 L 39.09921646118164 66.60231018066406 C 39.84646224975586 66.18159484863281 40.69471740722656 65.95920562744141 41.55226135253906 65.95920562744141 C 42.40979385375977 65.95920562744141 43.25804901123047 66.18159484863281 44.00530624389648 66.60231018066406 L 60.25205993652344 75.74964904785156 C 60.71858215332031 76.01231384277344 61.21319580078125 76.14549255371094 61.72216033935547 76.14549255371094 C 62.60272979736328 76.14549255371094 63.47274017333984 75.73078155517578 64.0494384765625 75.03614044189453 C 64.61894989013672 74.35015106201172 64.84028625488281 73.47915649414062 64.67268371582031 72.5836181640625 L 61.13705062866211 53.69212341308594 C 60.82566070556641 52.02835845947266 61.36906051635742 50.33554840087891 62.59063720703125 49.16386032104492 L 76.37788391113281 35.93971633911133 C 77.23218536376953 35.12030410766602 77.52100372314453 33.95989227294922 77.15048217773438 32.83562469482422 C 76.77997589111328 31.71136856079102 75.85782623291016 30.95005798339844 74.68373870849609 30.79912567138672 L 56.08958435058594 28.40874862670898 C 54.3682861328125 28.18746948242188 52.90811920166016 27.11386871337891 52.18362808227539 25.53688049316406 L 44.27835083007812 8.329338073730469 C 43.77560424804688 7.235023498535156 42.75651550292969 6.581718444824219 41.55226135253906 6.581718444824219 M 41.55226135253906 5.581718444824219 C 43.01282119750977 5.581718444824219 44.4733772277832 6.358436584472656 45.18703842163086 7.911872863769531 L 53.09232711791992 25.11941528320312 C 53.66812896728516 26.37277221679688 54.84903717041016 27.24104690551758 56.21708297729492 27.41691589355469 L 74.81124877929688 29.80729293823242 C 78.14463806152344 30.23580551147461 79.49555969238281 34.33499145507812 77.07009124755859 36.66140365600586 L 63.28285217285156 49.88554763793945 C 62.30899429321289 50.81963729858398 61.87173843383789 52.18178176879883 62.1199836730957 53.50815963745117 L 65.65561676025391 72.399658203125 C 66.28054809570312 75.73878479003906 62.72160339355469 78.28766632080078 59.76145172119141 76.62102508544922 L 43.51469421386719 67.47369384765625 C 42.29632568359375 66.7877197265625 40.80819702148438 66.7877197265625 39.58982849121094 67.47369384765625 L 23.34307098388672 76.62102508544922 C 20.3829231262207 78.28766632080078 16.823974609375 75.73878479003906 17.44889831542969 72.399658203125 L 20.98453903198242 53.50815963745117 C 21.23278427124023 52.18178176879883 20.79552841186523 50.81963729858398 19.82167434692383 49.88554763793945 L 6.034431457519531 36.66140365600586 C 3.608963012695312 34.33499145507812 4.959884643554688 30.23581314086914 8.29327392578125 29.80729293823242 L 26.8874397277832 27.41692733764648 C 28.25547409057617 27.24105834960938 29.43639373779297 26.37277221679688 30.0121955871582 25.11941528320312 L 37.91748428344727 7.911872863769531 C 38.63114547729492 6.358436584472656 40.09170150756836 5.581718444824219 41.55226135253906 5.581718444824219 Z" stroke="none" fill="#9b9b9b"/>
  </g>
</svg>
